{"asset":{"version":"2.0","generator":"babylon.js glTF exporter for 3ds max 2017 v1.3.6"},"scene":0,"scenes":[{"nodes":[0],"extensions":{}}],"nodes":[{"mesh":0,"translation":[0.0,0.0,0.0],"rotation":[0.0,0.0,0.0,1.0],"scale":[1.0,1.0,1.0],"name":"rotationtest"}],"meshes":[{"primitives":[{"attributes":{"POSITION":1,"NORMAL":2,"TEXCOORD_0":3,"TEXCOORD_1":4},"indices":0,"mode":4,"material":0}],"name":"rotationtest"}],"accessors":[{"bufferView":0,"componentType":5123,"count":54,"type":"SCALAR","name":"accessorIndices"},{"bufferView":1,"componentType":5126,"count":54,"max":[3.62184525,10.265398,4.24395752],"min":[-2.34043884,-0.0441954136,-1.9615593],"type":"VEC3","name":"accessorPositions"},{"bufferView":1,"byteOffset":648,"componentType":5126,"count":54,"type":"VEC3","name":"accessorNormals"},{"bufferView":2,"componentType":5126,"count":54,"type":"VEC2","name":"accessorUVs"},{"bufferView":2,"byteOffset":432,"componentType":5126,"count":54,"type":"VEC2","name":"accessorUV2s"}],"bufferViews":[{"buffer":0,"byteLength":108,"name":"bufferViewScalar"},{"buffer":0,"byteOffset":108,"byteLength":1296,"byteStride":12,"name":"bufferViewFloatVec3"},{"buffer":0,"byteOffset":1404,"byteLength":864,"byteStride":8,"name":"bufferViewFloatVec2"}],"buffers":[{"uri":"rotationtest.bin","byteLength":2268}],"materials":[{"pbrMetallicRoughness":{"baseColorFactor":[0.5,0.5,0.5,1.0],"metallicFactor":0.0,"roughnessFactor":0.0},"emissiveFactor":[0.0,0.0,0.0],"alphaMode":"OPAQUE","name":"Material #22"}]}