{"asset":{"version":"2.0","generator":"babylon.js glTF exporter for 3ds max 2017 v1.2.40","copyright":"2018 (c) BabylonJS"},"scene":0,"scenes":[{"nodes":[0,1],"extensions":{}}],"nodes":[{"mesh":0,"translation":[0.0,0.0,0.0],"rotation":[0.0,0.0,0.0,1.0],"scale":[1.0,1.0,1.0],"name":"hotel_lower_bamboo_trim"},{"mesh":1,"translation":[0.0,0.0,0.0],"rotation":[0.0,0.0,0.0,1.0],"scale":[1.0,1.0,1.0],"name":"hotel_lower_case"}],"meshes":[{"primitives":[{"attributes":{"POSITION":1,"NORMAL":2,"TEXCOORD_0":3},"indices":0,"mode":4,"material":0}],"name":"hotel_lower_bamboo_trim"},{"primitives":[{"attributes":{"POSITION":5,"NORMAL":6,"TEXCOORD_0":7},"indices":4,"mode":4,"material":1}],"name":"hotel_lower_case"}],"accessors":[{"bufferView":0,"componentType":5123,"count":4122,"type":"SCALAR","name":"accessorIndices"},{"bufferView":1,"componentType":5126,"count":4122,"max":[95.6551743,295.237427,68.27085],"min":[-40.7981262,40.2876434,-103.658745],"type":"VEC3","name":"accessorPositions"},{"bufferView":1,"byteOffset":49464,"componentType":5126,"count":4122,"type":"VEC3","name":"accessorNormals"},{"bufferView":2,"componentType":5126,"count":4122,"type":"VEC2","name":"accessorUVs"},{"bufferView":0,"byteOffset":8244,"componentType":5123,"count":240,"type":"SCALAR","name":"accessorIndices"},{"bufferView":1,"byteOffset":98928,"componentType":5126,"count":240,"max":[21.9596252,51.25345,43.31523],"min":[-21.9596329,0.0,-43.31523],"type":"VEC3","name":"accessorPositions"},{"bufferView":1,"byteOffset":101808,"componentType":5126,"count":240,"type":"VEC3","name":"accessorNormals"},{"bufferView":2,"byteOffset":32976,"componentType":5126,"count":240,"type":"VEC2","name":"accessorUVs"}],"bufferViews":[{"buffer":0,"byteLength":8724,"name":"bufferViewScalar"},{"buffer":0,"byteOffset":8724,"byteLength":104688,"byteStride":12,"name":"bufferViewFloatVec3"},{"buffer":0,"byteOffset":113412,"byteLength":34896,"byteStride":8,"name":"bufferViewFloatVec2"}],"buffers":[{"uri":"bamboo-gltf-alpha-none.bin","byteLength":148308}],"materials":[{"pbrMetallicRoughness":{"baseColorFactor":[1.0,1.0,1.0,1.0],"baseColorTexture":{"index":0,"texCoord":0},"metallicFactor":1.0,"roughnessFactor":1.0,"metallicRoughnessTexture":{"index":1,"texCoord":0}},"emissiveFactor":[0.0,0.0,0.0],"alphaMode":"OPAQUE","name":"bamboo"},{"pbrMetallicRoughness":{"baseColorFactor":[1.0,1.0,1.0,1.0],"baseColorTexture":{"index":4,"texCoord":0},"metallicFactor":1.0,"roughnessFactor":1.0,"metallicRoughnessTexture":{"index":3,"texCoord":0}},"normalTexture":{"index":2,"texCoord":0},"occlusionTexture":{"index":3,"texCoord":0},"emissiveFactor":[0.0,0.0,0.0],"alphaMode":"OPAQUE","name":"hotel_lower_plant_case"}],"textures":[{"sampler":0,"source":0,"name":"bamboo_albedo255_baseColor.jpg"},{"sampler":1,"source":1,"name":"bamboo_roughness0.jpg"},{"sampler":2,"source":2,"name":"hotel_lower_plant_case_Normal.jpg"},{"sampler":3,"source":3,"name":"hotel_lower_plant_case_AOhotel_lower_plant_case_Roughness0.jpg"},{"sampler":4,"source":4,"name":"hotel_lower_plant_case_BaseColor.jpg"}],"images":[{"uri":"bamboo_albedo255_baseColor.jpg"},{"uri":"bamboo_roughness0.jpg"},{"uri":"hotel_lower_plant_case_Normal.jpg"},{"uri":"hotel_lower_plant_case_AOhotel_lower_plant_case_Roughness0.jpg"},{"uri":"hotel_lower_plant_case_BaseColor.jpg"}],"samplers":[{"magFilter":9729,"minFilter":9987,"wrapS":10497,"wrapT":10497},{"magFilter":9729,"minFilter":9987,"wrapS":10497,"wrapT":10497},{"magFilter":9729,"minFilter":9987,"wrapS":10497,"wrapT":10497},{"magFilter":9729,"minFilter":9987,"wrapS":10497,"wrapT":10497},{"magFilter":9729,"minFilter":9987,"wrapS":10497,"wrapT":10497}]}